<?xml version="1.0" encoding="utf-8"?>
<svg xmlns="http://www.w3.org/2000/svg">
<symbol id="send" viewBox="0 0 32 32"><g><g><path d="M1.911,16.179c-1.084,0.568-1.039,1.4,0.098,1.852l3.364,1.331c1.137,0.449,2.856,0.204,3.821-0.55    L23.806,7.289c0.961-0.757,1.064-0.645,0.229,0.249L12.483,19.902c-0.837,0.892-0.59,1.984,0.55,2.425l0.394,0.154    c1.14,0.44,3,1.182,4.132,1.642l3.732,1.521c1.133,0.46,2.06,0.842,2.062,0.849c0.001,0.007,0.006,0.028,0.012,0.03    s0.273-0.962,0.594-2.141l5.688-20.908c0.321-1.18-0.302-1.681-1.385-1.113L1.911,16.179z"/></g><g><path d="M11.146,29.864c-0.067,0.199,2.301-3.429,2.301-3.429c0.669-1.022,0.29-2.241-0.842-2.703l-2.582-1.058    c-1.132-0.463-1.674,0.08-1.205,1.212C8.818,23.887,11.214,29.66,11.146,29.864z"/></g></g>
</symbol>
<symbol id="trash" viewBox="0 0 512 512"><g><path d="M413.7,133.4c-2.4-9-4-14-4-14c-2.6-9.3-9.2-9.3-19-10.9l-53.1-6.7c-6.6-1.1-6.6-1.1-9.2-6.8c-8.7-19.6-11.4-31-20.9-31   h-103c-9.5,0-12.1,11.4-20.8,31.1c-2.6,5.6-2.6,5.6-9.2,6.8l-53.2,6.7c-9.7,1.6-16.7,2.5-19.3,11.8c0,0-1.2,4.1-3.7,13   c-3.2,11.9-4.5,10.6,6.5,10.6h302.4C418.2,144.1,417,145.3,413.7,133.4z"/><path d="M379.4,176H132.6c-16.6,0-17.4,2.2-16.4,14.7l18.7,242.6c1.6,12.3,2.8,14.8,17.5,14.8h207.2c14.7,0,15.9-2.5,17.5-14.8   l18.7-242.6C396.8,178.1,396,176,379.4,176z"/></g>
</symbol></svg>